<svg width="35" height="23" viewBox="0 0 35 23" fill="none" xmlns="http://www.w3.org/2000/svg">
<mask id="mask0_1_27" style="mask-type:luminance" maskUnits="userSpaceOnUse" x="17" y="0" width="9" height="23">
<path d="M17.7401 4.91868V21.4055C17.7394 21.5336 17.7751 21.6591 17.8426 21.7659C17.9101 21.8728 18.0063 21.9561 18.1192 22.0055C18.232 22.0548 18.3562 22.0679 18.4761 22.043C18.596 22.0181 18.7062 21.9564 18.7926 21.8657L25.0376 15.4515C25.2815 15.2054 25.4402 14.8811 25.4884 14.5298C25.5366 14.1786 25.4716 13.8205 25.3037 13.5123V13.5075L25.2372 13.3985L23.7531 10.9329L20.0151 4.72077C19.9946 4.69037 19.9764 4.66116 19.9582 4.62897L19.9548 4.62301C19.6951 4.1715 19.553 3.65647 19.5427 3.12935C19.5323 2.60224 19.6541 2.08151 19.8958 1.61919C20.1376 1.15686 20.4908 0.76914 20.9202 0.494753C21.3496 0.220367 21.8402 0.0689244 22.343 0.0555573C21.1191 0.0656248 19.9486 0.582447 19.0866 1.49339C18.2246 2.40433 17.741 3.63554 17.7412 4.91868" fill="white"/>
</mask>
<g mask="url(#mask0_1_27)">
<path d="M19.6812 -3.46797L8.56488 16.7175L23.5629 25.7955L34.6792 5.61L19.6812 -3.46797Z" fill="url(#paint0_linear_1_27)"/>
</g>
<mask id="mask1_1_27" style="mask-type:luminance" maskUnits="userSpaceOnUse" x="19" y="0" width="16" height="11">
<path d="M22.4159 0.0555573H22.342C21.8392 0.0689244 21.3487 0.220367 20.9192 0.494753C20.4898 0.76914 20.1366 1.15686 19.8948 1.61919C19.6531 2.08151 19.5313 2.60224 19.5417 3.12935C19.552 3.65647 19.6941 4.1715 19.9538 4.62301L19.9572 4.62897L20.0141 4.72077L23.7533 10.9335H23.7567C23.6422 10.7348 23.5802 10.5077 23.5768 10.2756C23.5735 10.0435 23.6289 9.81455 23.7376 9.61225C23.8462 9.40996 24.0042 9.24153 24.1952 9.12417C24.3863 9.00681 24.6037 8.94473 24.8251 8.94426H29.809C30.3697 8.95107 30.9261 8.84117 31.446 8.62094C31.9659 8.4007 32.4389 8.0745 32.8377 7.66124C33.2365 7.24798 33.5531 6.75587 33.7691 6.21342C33.9852 5.67097 34.0965 5.08896 34.0965 4.5011C34.0965 3.91325 33.9852 3.33124 33.7691 2.78878C33.5531 2.24633 33.2365 1.75422 32.8377 1.34096C32.4389 0.927697 31.9659 0.601502 31.446 0.381266C30.9261 0.16103 30.3697 0.0511335 29.809 0.0579422L22.4159 0.0555573Z" fill="white"/>
</mask>
<g mask="url(#mask1_1_27)">
<path d="M34.0478 0.0555115H19.5437V10.9335H34.0478V0.0555115Z" fill="url(#paint1_linear_1_27)"/>
</g>
<mask id="mask2_1_27" style="mask-type:luminance" maskUnits="userSpaceOnUse" x="8" y="0" width="9" height="23">
<path d="M14.733 3.06714C14.7337 3.61567 14.5907 4.15387 14.3196 4.62301L14.3167 4.62897C14.2991 4.65937 14.2803 4.68858 14.2599 4.72077L10.5218 10.9329L9.04003 13.3955L8.97407 13.5046V13.5093C8.80583 13.8173 8.74059 14.1755 8.7887 14.5268C8.83681 14.8781 8.99552 15.2025 9.23961 15.4485L15.4824 21.8657C15.5687 21.9561 15.6786 22.0177 15.7982 22.0426C15.9179 22.0675 16.0419 22.0547 16.1546 22.0058C16.2673 21.9569 16.3636 21.874 16.4314 21.7677C16.4992 21.6614 16.5354 21.5364 16.5355 21.4085V4.91868C16.5356 3.63554 16.052 2.40433 15.1901 1.49339C14.3281 0.582447 13.1576 0.0656248 11.9337 0.0555573C12.6827 0.075917 13.3945 0.402136 13.9174 0.964692C14.4403 1.52725 14.7329 2.28166 14.733 3.06714Z" fill="white"/>
</mask>
<g mask="url(#mask2_1_27)">
<path d="M14.5945 -3.46872L-0.403473 5.60925L10.7129 25.7947L25.7109 16.7168L14.5945 -3.46872Z" fill="url(#paint2_linear_1_27)"/>
</g>
<mask id="mask3_1_27" style="mask-type:luminance" maskUnits="userSpaceOnUse" x="0" y="0" width="15" height="11">
<path d="M11.859 0.0555573H4.46711C3.35158 0.0691036 2.28614 0.543185 1.50187 1.37497C0.717607 2.20675 0.277771 3.32915 0.277771 4.49872C0.277771 5.66828 0.717607 6.79069 1.50187 7.62247C2.28614 8.45425 3.35158 8.92833 4.46711 8.94188H9.45098C9.67243 8.94234 9.88979 9.00443 10.0809 9.12179C10.2719 9.23915 10.4298 9.40758 10.5385 9.60987C10.6471 9.81216 10.7026 10.0411 10.6993 10.2732C10.6959 10.5053 10.6338 10.7324 10.5194 10.9311H10.5222L14.2603 4.72137L14.3172 4.62957L14.32 4.6236C14.5798 4.17213 14.7221 3.65706 14.7325 3.12988C14.743 2.6027 14.6212 2.08188 14.3795 1.6195C14.1377 1.15712 13.7844 0.769369 13.3549 0.495023C12.9253 0.220676 12.4346 0.0693434 11.9318 0.056154H11.8573L11.859 0.0555573Z" fill="white"/>
</mask>
<g mask="url(#mask3_1_27)">
<path d="M14.7326 0.0552521H0.228485V10.9332H14.7326V0.0552521Z" fill="url(#paint3_linear_1_27)"/>
</g>
<defs>
<linearGradient id="paint0_linear_1_27" x1="29.1698" y1="14.8703" x2="15.1733" y2="7.16234" gradientUnits="userSpaceOnUse">
<stop stop-color="white"/>
<stop offset="0.53" stop-color="#F7E2E8"/>
<stop offset="1" stop-color="#EFB2C2"/>
</linearGradient>
<linearGradient id="paint1_linear_1_27" x1="34.0662" y1="5.67312" x2="19.5786" y2="5.67312" gradientUnits="userSpaceOnUse">
<stop stop-color="#EC9AAF"/>
<stop offset="1" stop-color="white"/>
</linearGradient>
<linearGradient id="paint2_linear_1_27" x1="18.4644" y1="20.5515" x2="7.58882" y2="2.58359" gradientUnits="userSpaceOnUse">
<stop stop-color="white"/>
<stop offset="0.53" stop-color="#F7E2E8"/>
<stop offset="1" stop-color="#EFB2C2"/>
</linearGradient>
<linearGradient id="paint3_linear_1_27" x1="14.751" y1="5.67286" x2="0.263437" y2="5.67286" gradientUnits="userSpaceOnUse">
<stop stop-color="white"/>
<stop offset="1" stop-color="#EC9AAF"/>
</linearGradient>
</defs>
</svg>
